<svg width="1096" height="284" viewBox="0 0 1096 284" fill="none" xmlns="http://www.w3.org/2000/svg">
<path d="M129.086 39.9647C129.086 39.9647 142.819 19.2445 144.058 0L152.449 4.95494C152.797 5.16017 153.041 5.67687 152.99 6.09136C152.99 6.09136 148.382 44.3125 134.747 51.6901" fill="#4CA146"/>
<path d="M150.872 65.3566C150.872 65.3566 172.089 52.6886 191.121 52.5739L186.73 43.7879C186.553 43.4252 186.063 43.1803 185.653 43.2474C185.653 43.2474 156.072 48.0605 148.008 61.431" fill="#4CA146"/>
<path d="M120.129 60.989C120.129 60.989 133.361 28.5122 130.019 3.94922L142.94 6.0835C143.339 6.15056 143.666 6.54526 143.65 6.96339C143.65 6.96339 142.573 47.2796 125.976 63.0841" fill="#6BA743"/>
<path d="M124.844 63.5459C124.844 63.5459 149.008 37.819 155.242 13.2285L166.091 20.2155C166.426 20.4325 166.572 20.9334 166.403 21.32C166.403 21.32 150.247 59.1626 129.329 67.7789" fill="#6BA743"/>
<path d="M133.32 72.395C133.32 72.395 159.091 48.3131 183.5 42.3325L176.725 31.2777C176.516 30.9347 176.027 30.7925 175.64 30.9545C175.64 30.9545 137.995 46.7747 129.186 67.8028" fill="#6BA743"/>
<path d="M128.936 73.6053C128.936 73.6053 161.211 60.5701 185.486 64.2194L183.514 51.1374C183.455 50.731 183.06 50.3993 182.65 50.4074C182.65 50.4074 142.744 51.0703 126.932 67.6715" fill="#6BA743"/>
<path d="M161.516 84.0167C162.175 80.8171 162.139 77.6849 161.18 74.714C158.545 66.5671 152.327 54.9011 144.895 50.4471C139.332 43.8031 126.841 39.4909 118.383 38.1578C115.302 37.6726 112.205 38.1299 109.143 39.274C94.6209 44.7303 73.0442 75.1636 65.8088 84.956C51.8428 103.881 25.4178 137.976 14.5723 158.897C2.09347 182.975 -1.57153 191.733 0.578503 219.397C28.2425 217.203 35.2651 209.715 57.0979 193.63C76.0665 179.645 106.661 150.707 123.168 133.956C131.714 125.284 158.399 99.2099 161.516 84.0167Z" fill="url(#paint0_linear_409_3)"/>
<path d="M161.515 84.0177C162.174 80.8181 162.139 77.6859 161.18 74.715C158.545 66.5681 152.327 54.9021 144.894 50.4481C143.959 49.3315 142.811 48.2819 141.537 47.2998C147.313 52.7678 151.988 61.9638 154.181 68.7379C155.144 71.7125 155.179 74.8451 154.521 78.0447C151.404 93.2339 124.718 119.308 116.173 127.979C99.6704 144.739 69.0674 173.673 50.0984 187.655C32.3725 200.713 24.4075 208.103 7.2379 211.598C3.01257 216.545 0.578125 219.398 0.578125 219.398C28.2422 217.204 35.2647 209.716 57.0975 193.631C76.0661 179.646 106.661 150.708 123.168 133.956C131.713 125.285 158.399 99.2109 161.515 84.0177Z" fill="#DF542A"/>
<path d="M0.216797 212.741C0.272144 214.832 0.394148 217.037 0.57958 219.396C0.57958 219.396 3.01402 216.544 7.23936 211.597C5.06549 212.043 2.72598 212.417 0.216797 212.741Z" fill="#DF542A"/>
<path d="M105.205 59.1189C105.205 59.1189 117.877 55.4462 121.298 69.8816C121.298 69.8816 114.476 60.5393 105.205 59.1189Z" fill="#C9532D"/>
<path d="M105.206 59.1184L105.296 59.4287L105.308 59.4251C105.455 59.3843 106.816 59.0231 108.689 59.0235C110.653 59.0235 113.171 59.4194 115.467 60.9707C117.762 62.5237 119.863 65.2324 120.984 69.9555L121.298 69.8811L121.559 69.6909C121.55 69.6783 119.832 67.3267 116.942 64.7901C114.051 62.255 109.985 59.5265 105.255 58.7997L105.206 59.1184L105.296 59.4287L105.206 59.1184L105.157 59.4376C109.698 60.1312 113.678 62.7834 116.516 65.2753C117.934 66.5199 119.068 67.7222 119.844 68.6114C120.233 69.0562 120.532 69.423 120.734 69.6775C120.835 69.8048 120.911 69.9042 120.962 69.9712L121.02 70.0472L121.037 70.0714C121.128 70.1959 121.294 70.2387 121.433 70.1744C121.573 70.1098 121.648 69.9567 121.612 69.8068C120.467 64.9626 118.268 62.0817 115.829 60.4359C113.389 58.7892 110.736 58.3779 108.689 58.3779C106.603 58.3783 105.136 58.8033 105.116 58.8086C104.971 58.8506 104.874 58.9888 104.883 59.1395C104.894 59.2905 105.008 59.415 105.157 59.4376L105.206 59.1184Z" fill="#C9532D"/>
<path d="M21.957 165.564C21.957 165.564 34.6213 161.883 38.0496 176.326C38.0496 176.326 31.2322 166.981 21.957 165.564Z" fill="#C9532D"/>
<path d="M21.9575 165.565L22.0476 165.875L22.0605 165.871C22.2071 165.83 23.5702 165.467 25.4451 165.468C27.4089 165.468 29.925 165.864 32.2192 167.416C34.5131 168.969 36.6126 171.679 37.7361 176.402L38.05 176.327L38.311 176.137C38.3013 176.125 36.5851 173.772 33.695 171.234C30.8044 168.699 26.7383 165.97 22.0063 165.246L21.9575 165.565L22.0476 165.875L21.9575 165.565L21.909 165.884C26.4519 166.575 30.432 169.228 33.2692 171.72C34.6876 172.965 35.8204 174.167 36.5969 175.057C36.9851 175.502 37.2844 175.869 37.486 176.123C37.5866 176.251 37.6634 176.35 37.7143 176.417L37.7894 176.517C37.8799 176.642 38.0452 176.685 38.1849 176.62C38.3251 176.556 38.3999 176.403 38.3643 176.253C37.2166 171.409 35.0193 168.527 32.5808 166.881C30.1435 165.234 27.4921 164.822 25.4451 164.822C23.3569 164.823 21.8872 165.249 21.8674 165.255C21.7223 165.297 21.6254 165.435 21.6355 165.586C21.6456 165.736 21.7595 165.861 21.909 165.884L21.9575 165.565Z" fill="#C9532D"/>
<path d="M114.244 92.5269C114.244 92.5269 127.354 91.0947 128.238 105.905C128.238 105.905 123.14 95.5289 114.244 92.5269Z" fill="#C9532D"/>
<path d="M114.245 92.5264L114.28 92.8471L114.292 92.8459C114.357 92.8395 114.674 92.8116 115.17 92.8116C116.637 92.81 119.66 93.0617 122.378 94.8142C123.738 95.6904 125.025 96.9383 126.024 98.7296C127.023 100.521 127.733 102.861 127.916 105.924L128.238 105.905L128.528 105.762C128.521 105.748 127.238 103.136 124.829 100.139C122.42 97.144 118.886 93.7541 114.348 92.2206L114.245 92.5264L114.28 92.8471L114.245 92.5264L114.141 92.8322C118.5 94.3007 121.962 97.6001 124.326 100.544C125.508 102.014 126.416 103.394 127.027 104.403C127.332 104.908 127.564 105.321 127.718 105.606C127.796 105.749 127.854 105.86 127.892 105.935C127.911 105.972 127.926 106.001 127.935 106.02L127.949 106.047C128.017 106.185 128.172 106.256 128.321 106.216C128.47 106.177 128.57 106.039 128.561 105.885C128.373 102.743 127.64 100.303 126.588 98.4153C125.01 95.5826 122.717 94.011 120.547 93.1606C118.375 92.309 116.323 92.1664 115.17 92.166C114.575 92.166 114.219 92.2044 114.21 92.2056C114.059 92.2218 113.94 92.3413 113.924 92.4912C113.908 92.6415 113.998 92.7837 114.141 92.8322L114.245 92.5264Z" fill="#C9532D"/>
<path d="M106.408 94.0581C106.408 94.0581 119.341 91.462 121.538 106.142C121.538 106.142 115.529 96.2554 106.408 94.0581Z" fill="#C9532D"/>
<path d="M106.409 94.0578L106.472 94.3741L106.507 94.3676C106.68 94.3365 107.484 94.2032 108.635 94.2032C110.496 94.2024 113.252 94.5526 115.723 96.2122C118.192 97.8734 120.414 100.836 121.219 106.19L121.539 106.142L121.815 105.974C121.806 105.961 120.294 103.472 117.627 100.7C114.96 97.93 111.138 94.8674 106.484 93.7439L106.409 94.0578L106.472 94.3741L106.409 94.0578L106.333 94.3717C110.801 95.4455 114.544 98.4249 117.162 101.148C118.471 102.508 119.498 103.802 120.197 104.754C120.547 105.23 120.814 105.62 120.994 105.891C121.083 106.026 121.151 106.132 121.196 106.203L121.247 106.284L121.263 106.31C121.343 106.441 121.504 106.498 121.648 106.445C121.794 106.393 121.881 106.247 121.858 106.094C121.04 100.603 118.709 97.4347 116.082 95.6765C113.457 93.9164 110.573 93.5584 108.635 93.5576C107.263 93.5576 106.361 93.7382 106.345 93.7414C106.197 93.7709 106.089 93.9006 106.086 94.0517C106.083 94.2024 106.187 94.3361 106.333 94.3717L106.409 94.0578Z" fill="#C9532D"/>
<path d="M68.7559 106.149C68.7559 106.149 81.8657 104.713 82.7497 119.528C82.7497 119.528 77.6404 109.144 68.7559 106.149Z" fill="#C9532D"/>
<path d="M68.7543 106.149L68.7895 106.471L68.8016 106.469C68.8671 106.463 69.185 106.435 69.6831 106.435C71.1516 106.433 74.1747 106.685 76.8907 108.438C78.2501 109.314 79.5368 110.562 80.5351 112.354C81.533 114.145 82.2428 116.484 82.4258 119.547L82.7482 119.528L83.0378 119.385C83.0305 119.372 81.7442 116.757 79.3344 113.759C76.9242 110.763 73.3897 107.374 68.8574 105.844L68.7543 106.149L68.7895 106.471L68.7543 106.149L68.6513 106.456C73.0035 107.92 76.4661 111.219 78.8315 114.164C80.0144 115.635 80.9229 117.015 81.535 118.026C81.8408 118.531 82.0727 118.944 82.2274 119.23C82.305 119.372 82.3632 119.484 82.4015 119.558C82.4209 119.596 82.4355 119.624 82.4448 119.643L82.4585 119.67C82.5264 119.808 82.6815 119.879 82.8306 119.84C82.9792 119.801 83.0794 119.662 83.0701 119.509C82.8831 116.367 82.1507 113.927 81.0991 112.04C79.5223 109.207 77.2305 107.635 75.061 106.784C72.89 105.932 70.8373 105.789 69.6831 105.789C69.086 105.789 68.7289 105.828 68.7192 105.829C68.5689 105.845 68.4497 105.965 68.4336 106.115C68.417 106.265 68.5083 106.407 68.6513 106.456L68.7543 106.149Z" fill="#C9532D"/>
<path d="M60.9121 107.672C60.9121 107.672 73.8446 105.076 76.0419 119.756C76.0419 119.756 70.0334 109.87 60.9121 107.672Z" fill="#C9532D"/>
<path d="M60.9127 107.673L60.9761 107.989L61.0109 107.983C61.1834 107.952 61.9881 107.818 63.1391 107.818C64.9999 107.818 67.7555 108.168 70.2267 109.828C72.6963 111.489 74.9178 114.451 75.7234 119.805L76.0425 119.757L76.3184 119.589C76.31 119.576 74.7974 117.088 72.1307 114.315C69.4635 111.545 65.6414 108.483 60.9882 107.359L60.9127 107.673L60.9761 107.989L60.9127 107.673L60.8371 107.987C65.3053 109.061 69.0478 112.041 71.6657 114.763C72.9742 116.123 74.002 117.417 74.7009 118.369C75.0507 118.845 75.3182 119.236 75.4975 119.506C75.5872 119.642 75.6551 119.747 75.7003 119.819L75.7508 119.899L75.7666 119.925C75.8466 120.056 76.0078 120.113 76.1524 120.061C76.297 120.008 76.3847 119.862 76.3617 119.709C75.5436 114.218 73.213 111.05 70.5862 109.292C67.9611 107.532 65.0766 107.174 63.1391 107.173C61.7671 107.173 60.8646 107.353 60.8493 107.357C60.701 107.386 60.5927 107.516 60.5899 107.667C60.5871 107.818 60.6901 107.951 60.8371 107.987L60.9127 107.673Z" fill="#C9532D"/>
<path d="M69.8945 141.085C69.8945 141.085 83.0048 139.649 83.8883 154.463C83.8883 154.463 78.7912 144.083 69.8945 141.085Z" fill="#C9532D"/>
<path d="M69.8949 141.084L69.93 141.405L69.9426 141.404C70.0076 141.397 70.3259 141.369 70.8237 141.369C72.2922 141.368 75.3152 141.62 78.0312 143.373C79.3907 144.249 80.6774 145.497 81.6756 147.288C82.6735 149.08 83.3837 151.419 83.5663 154.482L83.8887 154.463L84.1784 154.32C84.1711 154.307 82.888 151.693 80.4794 148.696C78.0708 145.7 74.5363 142.311 69.9979 140.779L69.8949 141.084L69.93 141.405L69.8949 141.084L69.7919 141.39C74.1501 142.857 77.6127 146.156 79.9765 149.1C81.1585 150.571 82.0663 151.951 82.6771 152.961C82.9826 153.466 83.214 153.879 83.3684 154.164C83.4455 154.307 83.5037 154.418 83.5425 154.493C83.5615 154.53 83.576 154.559 83.5853 154.578L83.599 154.605C83.6669 154.743 83.822 154.814 83.9711 154.775C84.1198 154.736 84.22 154.597 84.2107 154.444C84.0236 151.302 83.2912 148.862 82.2396 146.975C80.6632 144.141 78.3714 142.569 76.2016 141.719C74.0305 140.867 71.9779 140.724 70.8237 140.724C70.2266 140.724 69.8694 140.762 69.8597 140.764C69.7095 140.78 69.5903 140.899 69.5741 141.05C69.558 141.2 69.6489 141.342 69.7919 141.39L69.8949 141.084Z" fill="#C9532D"/>
<path d="M62.0605 142.615C62.0605 142.615 74.989 140.016 77.1863 154.696C77.1863 154.696 71.1818 144.813 62.0605 142.615Z" fill="#C9532D"/>
<path d="M62.0611 142.616L62.1245 142.932L62.1593 142.926C62.3322 142.894 63.1386 142.761 64.2912 142.761C66.1519 142.76 68.9059 143.11 71.3751 144.77C73.8427 146.431 76.0626 149.392 76.8678 154.744L77.1869 154.696L77.4628 154.529C77.4544 154.515 75.9426 152.027 73.2771 149.256C70.6112 146.487 66.7898 143.425 62.1367 142.302L62.0611 142.616L62.1245 142.932L62.0611 142.616L61.9856 142.93C66.4537 144.004 70.1955 146.982 72.8117 149.704C74.1202 151.064 75.1472 152.357 75.8461 153.309C76.1955 153.784 76.4626 154.175 76.6423 154.445C76.732 154.581 76.7995 154.686 76.8447 154.757L76.8952 154.838L76.911 154.864C76.991 154.995 77.1522 155.052 77.2968 155C77.4414 154.947 77.5291 154.801 77.5061 154.648C76.6884 149.16 74.3598 145.992 71.7351 144.234C69.112 142.474 66.2291 142.116 64.2912 142.115C62.9172 142.115 62.0131 142.296 61.9973 142.299C61.8494 142.329 61.7412 142.459 61.7383 142.61C61.7355 142.761 61.8385 142.894 61.9856 142.93L62.0611 142.616Z" fill="#C9532D"/>
<path d="M128.018 52.6877C128.018 52.6877 113.598 45.0063 93.9664 66.9219C84.9874 76.9546 27.2136 154.084 13.6855 173.123C13.6855 173.123 47.4054 105.569 101.845 52.4155C101.845 52.4155 115.586 41.1478 128.018 52.6877Z" fill="#E9822C"/>
<path d="M178.96 183V93.4H224.784C236.56 93.4 245.349 95.576 251.152 99.928C256.955 104.195 259.856 109.827 259.856 116.824C259.856 121.432 258.619 125.485 256.144 128.984C253.755 132.397 250.341 135.128 245.904 137.176C241.552 139.139 236.347 140.12 230.288 140.12L232.848 133.976C239.163 133.976 244.667 134.957 249.36 136.92C254.053 138.797 257.68 141.571 260.24 145.24C262.885 148.824 264.208 153.219 264.208 158.424C264.208 166.189 261.051 172.248 254.736 176.6C248.507 180.867 239.376 183 227.344 183H178.96ZM204.048 164.696H225.296C229.648 164.696 232.933 163.971 235.152 162.52C237.456 160.984 238.608 158.68 238.608 155.608C238.608 152.536 237.456 150.275 235.152 148.824C232.933 147.288 229.648 146.52 225.296 146.52H202.256V128.984H221.456C225.723 128.984 228.923 128.259 231.056 126.808C233.189 125.357 234.256 123.181 234.256 120.28C234.256 117.379 233.189 115.245 231.056 113.88C228.923 112.429 225.723 111.704 221.456 111.704H204.048V164.696ZM312.535 184.152C304.343 184.152 297.175 182.616 291.031 179.544C284.972 176.387 280.236 172.12 276.823 166.744C273.495 161.283 271.831 155.096 271.831 148.184C271.831 141.272 273.452 135.128 276.695 129.752C280.023 124.291 284.588 120.067 290.391 117.08C296.194 114.008 302.722 112.472 309.975 112.472C316.802 112.472 323.031 113.88 328.663 116.696C334.295 119.427 338.775 123.48 342.103 128.856C345.431 134.232 347.095 140.76 347.095 148.44C347.095 149.293 347.052 150.275 346.967 151.384C346.882 152.493 346.796 153.517 346.711 154.456H291.799V141.656H333.783L324.567 145.24C324.652 142.083 324.055 139.352 322.775 137.048C321.58 134.744 319.874 132.952 317.655 131.672C315.522 130.392 313.004 129.752 310.103 129.752C307.202 129.752 304.642 130.392 302.423 131.672C300.29 132.952 298.626 134.787 297.431 137.176C296.236 139.48 295.639 142.211 295.639 145.368V149.08C295.639 152.493 296.322 155.437 297.687 157.912C299.138 160.387 301.186 162.307 303.831 163.672C306.476 164.952 309.634 165.592 313.303 165.592C316.716 165.592 319.618 165.123 322.007 164.184C324.482 163.16 326.914 161.624 329.303 159.576L342.103 172.888C338.775 176.557 334.679 179.373 329.815 181.336C324.951 183.213 319.191 184.152 312.535 184.152ZM383.524 184.152C377.636 184.152 371.876 183.469 366.244 182.104C360.697 180.739 356.217 179.032 352.804 176.984L360.1 160.344C363.343 162.307 367.14 163.885 371.492 165.08C375.844 166.189 380.111 166.744 384.292 166.744C388.388 166.744 391.204 166.317 392.74 165.464C394.361 164.611 395.172 163.459 395.172 162.008C395.172 160.643 394.404 159.661 392.868 159.064C391.417 158.381 389.455 157.869 386.98 157.528C384.591 157.187 381.945 156.803 379.044 156.376C376.143 155.949 373.199 155.395 370.212 154.712C367.311 153.944 364.623 152.835 362.148 151.384C359.759 149.848 357.839 147.8 356.388 145.24C354.937 142.68 354.212 139.437 354.212 135.512C354.212 131.075 355.492 127.149 358.052 123.736C360.697 120.237 364.537 117.507 369.572 115.544C374.607 113.496 380.751 112.472 388.004 112.472C392.868 112.472 397.775 112.984 402.724 114.008C407.759 114.947 411.983 116.397 415.396 118.36L408.1 134.872C404.687 132.909 401.273 131.587 397.86 130.904C394.447 130.136 391.204 129.752 388.132 129.752C384.036 129.752 381.135 130.221 379.428 131.16C377.807 132.099 376.996 133.251 376.996 134.616C376.996 135.981 377.721 137.048 379.172 137.816C380.623 138.499 382.543 139.053 384.932 139.48C387.407 139.821 390.095 140.205 392.996 140.632C395.897 140.973 398.799 141.528 401.7 142.296C404.687 143.064 407.375 144.216 409.764 145.752C412.239 147.203 414.201 149.208 415.652 151.768C417.103 154.243 417.828 157.443 417.828 161.368C417.828 165.635 416.505 169.475 413.86 172.888C411.3 176.301 407.46 179.032 402.34 181.08C397.305 183.128 391.033 184.152 383.524 184.152ZM459.284 184.152C450.409 184.152 443.497 181.976 438.548 177.624C433.599 173.187 431.124 166.531 431.124 157.656V98.136H455.444V157.4C455.444 159.875 456.127 161.837 457.492 163.288C458.857 164.653 460.607 165.336 462.74 165.336C465.641 165.336 468.116 164.611 470.164 163.16L476.18 180.184C474.132 181.549 471.615 182.531 468.628 183.128C465.641 183.811 462.527 184.152 459.284 184.152ZM421.012 134.36V116.184H471.316V134.36H421.012Z" fill="black"/>
<path d="M523.96 183V93.4H564.92C573.112 93.4 580.152 94.7227 586.04 97.368C592.013 100.013 596.621 103.853 599.864 108.888C603.107 113.837 604.728 119.725 604.728 126.552C604.728 133.293 603.107 139.139 599.864 144.088C596.621 148.952 592.013 152.707 586.04 155.352C580.152 157.912 573.112 159.192 564.92 159.192H538.04L549.304 148.568V183H523.96ZM579.384 183L557.112 150.36H584.12L606.52 183H579.384ZM549.304 151.256L538.04 139.608H563.384C568.675 139.608 572.6 138.456 575.16 136.152C577.805 133.848 579.128 130.648 579.128 126.552C579.128 122.371 577.805 119.128 575.16 116.824C572.6 114.52 568.675 113.368 563.384 113.368H538.04L549.304 101.72V151.256ZM653.91 184.152C645.718 184.152 638.55 182.616 632.406 179.544C626.347 176.387 621.611 172.12 618.198 166.744C614.87 161.283 613.206 155.096 613.206 148.184C613.206 141.272 614.827 135.128 618.07 129.752C621.398 124.291 625.963 120.067 631.766 117.08C637.569 114.008 644.097 112.472 651.35 112.472C658.177 112.472 664.406 113.88 670.038 116.696C675.67 119.427 680.15 123.48 683.478 128.856C686.806 134.232 688.47 140.76 688.47 148.44C688.47 149.293 688.427 150.275 688.342 151.384C688.257 152.493 688.171 153.517 688.086 154.456H633.174V141.656H675.158L665.942 145.24C666.027 142.083 665.43 139.352 664.15 137.048C662.955 134.744 661.249 132.952 659.03 131.672C656.897 130.392 654.379 129.752 651.478 129.752C648.577 129.752 646.017 130.392 643.798 131.672C641.665 132.952 640.001 134.787 638.806 137.176C637.611 139.48 637.014 142.211 637.014 145.368V149.08C637.014 152.493 637.697 155.437 639.062 157.912C640.513 160.387 642.561 162.307 645.206 163.672C647.851 164.952 651.009 165.592 654.678 165.592C658.091 165.592 660.993 165.123 663.382 164.184C665.857 163.16 668.289 161.624 670.678 159.576L683.478 172.888C680.15 176.557 676.054 179.373 671.19 181.336C666.326 183.213 660.566 184.152 653.91 184.152ZM735.139 184.152C727.459 184.152 720.59 182.616 714.531 179.544C708.558 176.472 703.864 172.248 700.451 166.872C697.038 161.411 695.331 155.181 695.331 148.184C695.331 141.187 697.038 135 700.451 129.624C703.864 124.248 708.558 120.067 714.531 117.08C720.59 114.008 727.459 112.472 735.139 112.472C742.99 112.472 749.774 114.136 755.491 117.464C761.208 120.792 765.262 125.485 767.651 131.544L748.835 141.144C747.214 137.901 745.208 135.555 742.819 134.104C740.43 132.568 737.827 131.8 735.011 131.8C732.195 131.8 729.635 132.44 727.331 133.72C725.027 135 723.192 136.877 721.827 139.352C720.547 141.741 719.907 144.685 719.907 148.184C719.907 151.768 720.547 154.797 721.827 157.272C723.192 159.747 725.027 161.624 727.331 162.904C729.635 164.184 732.195 164.824 735.011 164.824C737.827 164.824 740.43 164.099 742.819 162.648C745.208 161.112 747.214 158.723 748.835 155.48L767.651 165.08C765.262 171.139 761.208 175.832 755.491 179.16C749.774 182.488 742.99 184.152 735.139 184.152ZM776.558 183V113.624H800.878V183H776.558ZM788.718 105.944C784.281 105.944 780.697 104.707 777.966 102.232C775.235 99.7573 773.87 96.6853 773.87 93.016C773.87 89.3467 775.235 86.2747 777.966 83.8C780.697 81.3253 784.281 80.088 788.718 80.088C793.155 80.088 796.739 81.2827 799.47 83.672C802.201 85.976 803.566 88.9627 803.566 92.632C803.566 96.472 802.201 99.672 799.47 102.232C796.825 104.707 793.241 105.944 788.718 105.944ZM860.331 184.152C854.443 184.152 849.408 182.872 845.227 180.312C841.046 177.667 837.846 173.741 835.627 168.536C833.494 163.245 832.427 156.504 832.427 148.312C832.427 140.035 833.451 133.293 835.499 128.088C837.547 122.797 840.619 118.872 844.715 116.312C848.896 113.752 854.102 112.472 860.331 112.472C866.646 112.472 872.363 113.965 877.483 116.952C882.688 119.853 886.784 123.992 889.771 129.368C892.843 134.659 894.379 140.973 894.379 148.312C894.379 155.651 892.843 162.008 889.771 167.384C886.784 172.76 882.688 176.899 877.483 179.8C872.363 182.701 866.646 184.152 860.331 184.152ZM816.683 207.832V113.624H839.851V125.4L839.723 148.312L841.003 171.352V207.832H816.683ZM855.211 164.824C857.942 164.824 860.374 164.184 862.507 162.904C864.726 161.624 866.475 159.747 867.755 157.272C869.12 154.797 869.803 151.811 869.803 148.312C869.803 144.813 869.12 141.827 867.755 139.352C866.475 136.877 864.726 135 862.507 133.72C860.374 132.44 857.942 131.8 855.211 131.8C852.48 131.8 850.006 132.44 847.787 133.72C845.654 135 843.904 136.877 842.539 139.352C841.259 141.827 840.619 144.813 840.619 148.312C840.619 151.811 841.259 154.797 842.539 157.272C843.904 159.747 845.654 161.624 847.787 162.904C850.006 164.184 852.48 164.824 855.211 164.824ZM942.035 184.152C933.843 184.152 926.675 182.616 920.531 179.544C914.472 176.387 909.736 172.12 906.323 166.744C902.995 161.283 901.331 155.096 901.331 148.184C901.331 141.272 902.952 135.128 906.195 129.752C909.523 124.291 914.088 120.067 919.891 117.08C925.694 114.008 932.222 112.472 939.475 112.472C946.302 112.472 952.531 113.88 958.163 116.696C963.795 119.427 968.275 123.48 971.603 128.856C974.931 134.232 976.595 140.76 976.595 148.44C976.595 149.293 976.552 150.275 976.467 151.384C976.382 152.493 976.296 153.517 976.211 154.456H921.299V141.656H963.283L954.067 145.24C954.152 142.083 953.555 139.352 952.275 137.048C951.08 134.744 949.374 132.952 947.155 131.672C945.022 130.392 942.504 129.752 939.603 129.752C936.702 129.752 934.142 130.392 931.923 131.672C929.79 132.952 928.126 134.787 926.931 137.176C925.736 139.48 925.139 142.211 925.139 145.368V149.08C925.139 152.493 925.822 155.437 927.187 157.912C928.638 160.387 930.686 162.307 933.331 163.672C935.976 164.952 939.134 165.592 942.803 165.592C946.216 165.592 949.118 165.123 951.507 164.184C953.982 163.16 956.414 161.624 958.803 159.576L971.603 172.888C968.275 176.557 964.179 179.373 959.315 181.336C954.451 183.213 948.691 184.152 942.035 184.152Z" fill="#D8541C"/>
<defs>
<linearGradient id="paint0_linear_409_3" x1="44.7047" y1="106.08" x2="89.6118" y2="151.565" gradientUnits="userSpaceOnUse">
<stop stop-color="#E6762B"/>
<stop offset="1" stop-color="#E15F29"/>
</linearGradient>
</defs>
</svg>
